<?xml version="1.0" encoding="utf-8"?>

<!DOCTYPE svg PUBLIC "-//W3C//DTD SVG 1.1//EN" "http://www.w3.org/Graphics/SVG/1.1/DTD/svg11.dtd">
<svg version="1.1" id="Layer_1" xmlns="http://www.w3.org/2000/svg" xmlns:xlink="http://www.w3.org/1999/xlink" x="0px" y="0px"
	 viewBox="0 0 1920 1469" enable-background="new 0 0 1920 1469" xml:space="preserve">
<g>
	<path fill="#4A7EBB" d="M754.26,97.4C787.87,79.97,824.99,68.33,863,66.96c9.22,0.27,18.53,0.96,27.43,3.56
		c18.64,5.28,35.39,15.7,50.42,27.72c24.35,20.05,44.9301,44.48,61.7401,71.12c7.93,13.1,16.06,26.45,19.72,41.49
		c3.17,13.78,3.35,28.08,1.95,42.1c-1.84,22.46-6.96,44.58-7.56,67.14c-0.93,4.63,0.24,9.28,0.34,13.93
		c0.89,13.33,5.91,26.85,15.95,36c11.13,9.56,24.8101,15.42,38.37,20.64c34.59,12.97,70.84,21.95,103.71,39.18
		c18.66,9.67,36.0601,22.35,49.27,38.83c11.3301,13.75,18.67,30.3,23.79,47.25c7.2,24.09,10.58,49.12,12.9399,74.1
		c4.52,49.58,4.55,99.41,9.2201,148.98c2.47,23.09,5.5299,46.39,13.4199,68.36c13.15,33.22,34.15,63.31,60.86,87.06
		c27.05,24.5,58.6901,43.03,89.9301,61.58c-5.67,9.54-11.14,19.2-17.08,28.57c-14.77-9.31-30.11-17.71-44.64-27.39
		c-31.41-20.38-61.02-44.34-83.88-74.22c-13.49-17.32-24.48-36.51-33.27-56.6c-7.1-16.24-10.99-33.65-14.12-51.03
		c-7.3101-45.77-7.9-92.21-10.49-138.38c-1.62-29.43-3.52-58.95-8.96-87.96c-3.5601-17.8-8.28-35.74-17.7201-51.41
		c-8.59-14.1-21.58-24.92-35.61-33.32c-17.85-10.76-37.5499-17.88-57.15-24.7c-19.51-6.86-39.45-12.56-58.58-20.46
		c-13.02-5.28-25.8-11.51-36.91-20.19c-22.5-16.7-33.26-45.49-32.52-72.92c-0.76-29.94,7.68-59.16,8.38-89.02
		c-0.09-9.65-1.1-19.65-5.51-28.38c-13.67-28-32.77-53.21-55.14-74.82c-13.91-12.73-29.35-24.57-47.45-30.57
		c-15.7-5.17-32.48-2.52-48.38,0.17c-19.1899,4.05-38.05,9.96-55.72,18.51c-15.97,7.34-31.25,16.63-43.84,29.01
		c-6.43,6.73-12.2,14.71-13.8199,24.08c-2.89,15.68-0.36,31.69,2.56,47.18c4.18,20.22,10.53,39.95,18.02,59.19
		c8.24,21.23,17.98,41.89,29.26,61.68c7.04,12.02,14.5,23.92,23.69,34.45c24.53,26.65,55.75,46.27,88.39,61.48
		c15.02,6.59,30.52,12.65,46.86,14.9c5.64,0.91,12.08-0.55,15.4-5.58c7.08-9.86,9.68-22.04,12.22-33.69
		c2.49-12.83,4.27-25.78,5.7-38.76c10.96,1.49,21.95,2.85,32.92,4.34c-1.84,16.45-4.07,32.91-7.82,49.05
		c-3.62,14.71-8.58,29.69-18.58,41.39c-8.5,10.19-21.46,16.29-34.7,16.65c-12.74,0.1-25.2-3.22-37.29-6.93
		c-31.33-10.61-60.84-26.26-87.75-45.43c-12.39-9.09-24.4-18.8-35.03-29.91c-13.49-13.99-24.08-30.43-33.75-47.2
		c-19.12-33.74-34.15-69.81-44.83-107.1c-4.11-15.27-7.47-30.8-9-46.56c-0.69-6.68-0.3-13.4-0.42-20.1
		c-0.08-16.65,5.56-33.2,15.79-46.34C716.97,120.37,735.29,107.72,754.26,97.4z"/>
	<path fill="#4A7EBB" d="M1018.36,470.52c8.8-2.61,17.9-4.06,27-5.19c1.67,10.94,3.3,21.89,4.83,32.86
		c-13.2899,1.71-27.2499,3.72-38.5099,11.57c-11.63,7.8-19.4,19.88-26.02,31.94c-7.8199,14.4-11.31,30.58-14.24,46.55
		c-7.57,44.43-11.58,89.63-24.05,133.09c-6.59,23.42-15.53,46.27-27.72,67.36c-18.22,30.48-40.84,58.07-64.61,84.35
		c-7.21,7.78-14.35,15.62-21.98,22.99c-5.72,6.32-11.67,12.43-17.96,18.18c-49.67,48.66-102.83,93.6201-155.92,138.48
		c-7.13-8.46-14.54-16.6899-21.42-25.36c27.89-23.21,55.37-46.92,82.68-70.8199c22.83-20.17,45.53-40.51,67.26-61.85
		c3.98-4.37,8.73-7.94,12.72-12.29c6.32-7.36,13.78-13.64,20.2-20.91c14.8-15.59,28.95-31.81,42.16-48.78
		c10.84-14.06,21.4-28.44,30.0699-43.97c21.23-38.39,30.09-82.04,36.53-125.0099c4.19-26.21,6.98-52.68,12.87-78.59
		c2.77-11.44,6.04-22.87,11.41-33.4c7.11-14.71,16.03-28.79,27.96-40.08C991.92,481.78,1004.62,474.38,1018.36,470.52z"/>
	<path fill="#4A7EBB" d="M860.6,550.56c12.11-12.97,26.32-23.73,40.23-34.68c5.3,7.44,11.39,14.31,16.51,21.88
		c-12.33,9.42-24.61,19.02-35.47,30.15c-8.33,8.1-15.39,17.4-21.93,26.98c-9.16,14.27-17.07,29.44-22.59,45.51
		c-9.17,27.61-14.84,56.21-21.0699,84.58c-5.63,25.89-11.28,51.82-19.09,77.16c-4.02,12.5-8.52,24.9-14.58,36.58
		c-9.99,18.75-23.47,35.38-37.96,50.83c-19.37,20.52-40.48,39.43-63.13,56.28c-5.26-7.38-10.51-14.76-15.93-22.01
		c30.77-24,60.48-50.22,83.15-82.24c15.96-22.11,23.02-48.88,29.89-74.85c7.68-31.41,13.93-63.15,21.38-94.61
		c4.28-17.73,8.92-35.45,15.82-52.37C826.6,594.36,841.3,570.38,860.6,550.56z"/>
	<path fill="#4A7EBB" d="M1060.53,730.61c3.45-16.23,4.87-32.79,7.14-49.18c9.1,1.04,18.22,1.97,27.2999,3.23
		c-2.85,21.51-5.01,43.2-10.2999,64.31c-5.4701,21.83-13.4401,43.2-25.14,62.4901c-18.67,31.85-45.64,57.75-73.58,81.44
		C936.2,934.22,881.87,969.48,828.24,1005.47c-5.12-7.64-10.12-15.36-15.34-22.93c33.58-22.16,67.11-44.4,99.81-67.85
		c31.5099-22.7,62.47-46.46,89.86-74.08c11.7-12.46,22.86-25.6,31.7-40.29C1047.38,779.05,1055.98,755.13,1060.53,730.61z"/>
	<path fill="#4A7EBB" d="M958.89,918.36c8.68-5.77,17.38-11.52,25.87-17.55c10.7,16.26,21.9,32.22,31.44,49.21
		c9.72,17.63,18.6299,36.52,19.78,56.95c1.53,20.4601-4.8099,40.36-11.5,59.42c-9.84-3.48-19.72-6.8201-29.57-10.25
		c4.02-11.46,8.07-23.05,9.57-35.16c1.58-12.21-0.85-24.66-5.74-35.87C988.49,961.19,973.21,939.94,958.89,918.36z"/>
	<path fill="#4A7EBB" d="M747.24,1013.32c26.33-5.01,53.69-4.57,79.84,1.29c19.35,4.14,38.06,10.79,56.55,17.74
		c22.41,8.47,44.44,17.92,66.29,27.76c36.08,15.85,71.83,32.46,108.1,47.88c35.88,15.04,72.29,29.29,110.12,38.66
		c21.9,5.1799,44.51,8.73,67.03,6.5699c38.08-3.13,73.88-18.2,107.5699-35.39c21.3-10.89,42.11-22.7,63.33-33.74
		c15.28-8.15,30.89-15.75,47.0801-21.9199c21.6-8.3101,44.58-14.14,67.88-13.4301c45.5599,0.65,90.0399,14.51,130.61,34.63
		c43.6799,21.6901,83.79,49.64,123.65,77.53c-6.42,9.03-12.4301,18.34-19.05,27.22c-33.41-23.47-67.04-46.83-102.88-66.5
		c-36.62-19.89-76.47-35.54-118.34-38.91c-13.02-1.0599-26.24-1.37-39.1,1.28c-18.01,3.61-35.26,10.27-51.8201,18.12
		c-37.98,18.09-73.78,40.53-112.1899,57.75c-19.87,9.08-40.5801,16.42-61.8401,21.48c-15.5,3.13-31.24,5.8-47.1,5.5
		c-22.26,0.53-44.4-3.36-65.9199-8.76c-41.0901-10.35-80.49-26.21-119.4301-42.6799c-36.63-15.8-72.87-32.48-109.34-48.66
		c-21.76-9.52-43.65-18.79-65.95-26.99c-21.45-7.45-43.32-14.72-66.12-16.29c-23.75-1.5599-48.07,1.4-70.06,10.79
		c-25.08,10.35-46.8,28.27-62.41,50.39c-3.84,5.7-7.74,11.48-10.2,17.9399c-2.94,11.4401,1.61,23.14,6.4901,33.37
		c12.55,23.37,32.24,42.4301,54.65,56.3501c18.46,9.74,38.65,15.5499,58.62,21.33c44.71,12.15,90.11,21.62,135.73,29.61
		c-2.32,10.89-4.54,21.8101-6.91,32.6901c-43.31-8.05-86.6-16.5901-129.18-28.03c-20.4-5.48-40.76-11.4601-60.22-19.75
		c-18.97-7.84-35.35-20.73-50.17-34.72c-13.86-13.9-26.13-29.63-34.5-47.4601c-8.19-17.76-12.04-38.9399-4.57-57.6
		c3.63-8.05,7.92-15.9,13.39-22.84c-11.07,5.45-23.72,6.1699-35.85,6.1899c-11.04-0.53-22.11-1.2999-32.99-3.36
		c-23.32-4.71-46.01-11.98-68.85-18.54c-23.73-6.9099-47.55-13.6899-71.83-18.3999c-14.28-2.75-28.78-4.89-43.36-4.5
		c-12.28-0.36-24.29,3.0399-35.71,7.26c-26.54,10.1599-49.81,27.34-70.33,46.74c-13.53,13.36-26.3,27.87-35.31,44.73
		c-11.22,22.2899-11.92,48.73-5.94,72.63c3.23,12.0499,8.43,23.85,16.84,33.1899c9.26,9.6,20.92,16.48,32.84,22.24
		c22.5,10.3201,46.92,16.37,71.58,18.23c25.23,2.2201,50.48-1.73,75.11-6.9399c40.54-8.97,80.67-20.86,118.32-38.5601
		c9.46-4.8799,19.01-9.8999,27.11-16.8999c5.08-4.24,8.2-10.74,8.2-17.36c-0.86-10.2101-5.41-19.63-10.57-28.3101
		c-11.8-19.2-26.57-36.3099-41.1-53.46c8.3799-7.29,16.9399-14.37,25.49-21.4701c13.46,16.4401,27.48,32.51,39.27,50.2401
		c8.59,13.4399,16.63,27.8099,19.16,43.7699c1.78,12.2201,0.35,25.28-6.06,36.03c-8.17,14.5701-22.62,24.0701-36.88,31.98
		c-18.31,9.9501-37.73,17.76-57.42,24.53c-24.73,8.54-49.94,15.74-75.5,21.33c-27.87,5.9901-56.43,10.6901-84.99,8.4
		c-25.54-1.7-50.88-7.1799-74.67-16.6799c-16.3-6.6001-32.06-15-45.56-26.39c-14.12-11.73-24.02-27.86-30.06-45.05
		c-11.16-32.41-11.09-69.12,2.55-100.78c10.66-23.1,27.63-42.58,45.67-60.22c16.42-15.66,34.62-29.5,54.36-40.7
		c14.61-8.1901,30.24-14.69,46.56-18.53c17.36-4.41,35.52-3.82,53.17-1.81c48.92,6.28,95.63,22.81,143.03,35.66
		c18.72,5.4301,38.24,8.41,57.7599,7.52c3.52-0.35,7.1-0.7,10.45-1.92c2.66-0.95,4.13-3.5299,5.86-5.5699
		c7.84,5.75,15.39,11.89,23.04,17.89C675.43,1040.36,710.01,1020.47,747.24,1013.32z"/>
	<path fill="#4A7EBB" d="M355.36,1075.3199c11.3-4.1399,23.76-3.2999,35.28-0.6c-1.44,7.75-2.88,15.5-4.54,23.2101
		c-9.19-2.55-19.58-3.1901-28.06,1.8999c-15.61,9.2301-28.45,22.37-40.03,36.17c-17.9,21.3101-34.23,43.89-50.5,66.46
		c-6.41-4.62-12.84-9.23-19.14-13.99c10.87-14.48,21.31-29.27,32.41-43.59c13.71-17.78,27.78-35.51,44.71-50.37
		C334.55,1086.87,344.13,1079.45,355.36,1075.3199z"/>
	<path fill="#4A7EBB" d="M865.14,1137.53c38.33,16.5599,76.53,33.4199,114.43,50.96c37.3,17.5,74.59,35.37,109.4,57.55
		c13.27,9.0699,26.76,18.4299,36.77,31.21c5.61,7.02,9.7,15.61,9.83,24.73c0.1101,10.6901-5.8899,20.96-14.71,26.8101
		c-5.99,3.9099-12.76,6.39-19.52,8.62c-23.4399,7.14-47.8199,10.5499-72.0299,13.9399C980.72,1357.7,931.84,1361.54,882.97,1365.04
		c-49.3,3.26-98.65,5.86-147.99,7.8999c-19.12,0.6901-38.21,1.6901-57.34,1.89c4.28-8.38,8.37-16.85,12.71-25.2
		c-8.46,6.27-16.8199,12.66-25.29,18.91c-5.71-6.9301-4.18-18.23,3.13-23.39c5.9-4.5,13.85-3.4601,20.81-3.67
		c96.07-3.58,192.23-8.16,287.98-17.52c24.92-2.59,49.84-5.3999,74.5701-9.47c13.22-2.34,26.49-4.6899,39.36-8.6
		c3.88-1.25,7.8099-2.51,11.35-4.59c-5.1901-8.2101-12.98-14.24-20.65-19.9801c-14.98-10.7799-30.95-20.09-47.22-28.7699
		c-35.5-18.9-72.06-35.7001-108.74-52.16c-24.57-10.89-49.09-21.86-73.78-32.4501C856.23,1157.77,860.75,1147.6801,865.14,1137.53z"
		/>
	<path fill="#4A7EBB" d="M272.15,1206.0699c14.41,8.4301,29.58,16.27,41.43,28.25c7.86,8.02,12.31,18.7101,14.69,29.54
		c-7.57,2.12-15.18,4.05-22.76,6.11c-1.62-6.51-3.23-13.45-8.06-18.4199c-10.4-11.01-24.5-17.3-37.09-25.3401
		C264.43,1219.58,268.19,1212.76,272.15,1206.0699z"/>
</g>
</svg>
