<?xml version="1.0" encoding="UTF-8" standalone="no"?>
<!-- Created with Inkscape (http://www.inkscape.org/) -->

<svg
   xmlns:dc="http://purl.org/dc/elements/1.1/"
   xmlns:cc="http://creativecommons.org/ns#"
   xmlns:rdf="http://www.w3.org/1999/02/22-rdf-syntax-ns#"
   xmlns:svg="http://www.w3.org/2000/svg"
   xmlns="http://www.w3.org/2000/svg"
   xmlns:sodipodi="http://sodipodi.sourceforge.net/DTD/sodipodi-0.dtd"
   xmlns:inkscape="http://www.inkscape.org/namespaces/inkscape"
   width="29.963581mm"
   height="67.541466mm"
   viewBox="0 0 29.963581 67.541466"
   version="1.1"
   id="svg8"
   inkscape:version="0.92.2pre0 (973e216, 2017-07-25)"
   sodipodi:docname="Kanji_Reiki_Tradizionale_Openclipart.svg">
  <defs
     id="defs2" />
  <sodipodi:namedview
     id="base"
     pagecolor="#ffffff"
     bordercolor="#666666"
     borderopacity="1.0"
     inkscape:pageopacity="0.0"
     inkscape:pageshadow="2"
     inkscape:zoom="1.4142136"
     inkscape:cx="-80.504813"
     inkscape:cy="175.82889"
     inkscape:document-units="mm"
     inkscape:current-layer="layer1"
     showgrid="false"
     inkscape:window-width="1600"
     inkscape:window-height="818"
     inkscape:window-x="0"
     inkscape:window-y="0"
     inkscape:window-maximized="1" />
  <metadata
     id="metadata5">
    <rdf:RDF>
      <cc:Work
         rdf:about="">
        <dc:format>image/svg+xml</dc:format>
        <dc:type
           rdf:resource="http://purl.org/dc/dcmitype/StillImage" />
        <dc:title />
      </cc:Work>
    </rdf:RDF>
  </metadata>
  <g
     inkscape:label="Livello 1"
     inkscape:groupmode="layer"
     id="layer1"
     transform="translate(-2.5182096,-225.72926)">
    <g
       id="g4693"
       transform="matrix(0.94123079,0,0,0.94123079,-51.940554,187.34325)">
      <path
         sodipodi:nodetypes="cccccccccc"
         inkscape:connector-curvature="0"
         id="path4512"
         d="m 73.93384,69.120395 c 1.086924,-1.263144 1.85811,-3.005226 1.9057,-4.35983 0.041,-1.32089 0.2138,-1.55029 0.7811,-1.03689 0.394806,0.234621 0.184786,1.557372 -0.05498,2.85414 1.208726,0.522819 2.372205,1.193691 3.62616,1.60334 0.70342,0.22258 0.70811,0.22965 0.45971,0.6938 -0.31557,0.58964 -1.118212,0.531289 -2.715312,-0.558541 -0.8189,-0.5588 -1.500188,-1.145929 -1.615018,-1.145929 -0.63556,0.942883 -1.494818,1.877838 -2.33846,2.44102 -1.680325,1.042656 -0.699907,0.180107 -0.0489,-0.49111 z"
         style="fill:#000000;stroke-width:0.16933332" />
      <path
         sodipodi:nodetypes="ccccccccccccccccccccccc"
         inkscape:connector-curvature="0"
         id="path4514"
         d="m 70.134115,61.270781 c -0.0631,-0.54442 -0.22186,-1.41995 -0.35288,-1.94562 -0.32348,-1.29794 -0.32645,-1.28913 0.42818,-1.26934 1.70753,-0.3118 1.141368,-0.192532 1.70753,-0.3118 0.32415,-0.0688 0.96374,-0.28396 1.42134,-0.47811 l 0.83198,-0.353 0.56648,0.65532 0.56649,0.65533 -0.10591,1.36709 c -0.14053,1.81412 -0.65203,2.59764 -1.23625,1.89369 -0.16509,-0.19892 -0.37594,-0.17429 -1.3609,0.15895 -0.64105,0.21688 -1.43238,0.44439 -1.75851,0.50557 l -0.59296,0.11124 z m 2.51983,-0.49367 c 0.53531,-0.24507 1.08984,-0.39093 1.26947,-0.33392 0.23465,0.0745 0.34629,-6.8e-4 0.42232,-0.28451 0.18773,-0.70073 0.11361,-1.6096 -0.14904,-1.82758 -0.3496,-0.29014 -1.68715,-0.11755 -2.80036,0.36134 l -0.87702,0.37728 0.1087,0.92486 c 0.0598,0.50867 0.14942,0.99075 0.19919,1.07127 0.16318,0.26405 0.85981,0.15394 1.82674,-0.28874 z"
         style="fill:#000000;stroke-width:0.16933332" />
      <path
         sodipodi:nodetypes="ccsccccccc"
         style="fill:#000000;stroke-width:0.16933332"
         d="m 66.000975,44.040101 c -0.4088,-0.2265 -0.40888,-0.22712 -0.0535,-0.41734 0.19578,-0.10477 0.57459,-0.1905 0.84182,-0.1905 0.8472,0 6.19704,-1.906849 6.75638,-2.408179 0.31758,-0.28465 0.44847,-0.30116 1.06706,-0.13459 0.77024,0.20741 1.03561,0.57815 0.66845,0.9339 -0.12915,0.12514 -1.15325,0.45228 -2.27578,0.72698 -1.12253,0.27469 -2.73217,0.775999 -3.57699,1.113999 -1.63869,0.65563 -2.71025,0.7731 -3.42747,0.37573 z"
         id="path4516"
         inkscape:connector-curvature="0" />
      <path
         sodipodi:nodetypes="sccscss"
         style="fill:#000000;stroke-width:0.16933332"
         d="m 62.378865,57.071911 c -0.13513,-0.13513 -0.29847,-0.53518 -0.36298,-0.889 -0.216898,-1.18969 -1.463218,-5.38093 -1.714488,-5.76565 -0.23355,-0.35759 -0.22441,-0.381 0.14889,-0.381 0.70529,0 1.12072,0.6951 1.834418,3.06934 0.78826,2.62227 1.01552,4.212 0.60211,4.212 -0.14424,0 -0.37282,-0.11056 -0.50795,-0.24569 z"
         id="path4524"
         inkscape:connector-curvature="0" />
      <path
         inkscape:connector-curvature="0"
         id="path4530"
         d="m 73.444475,53.435591 c -0.2783,-0.52002 -0.20745,-0.84558 0.20489,-0.94147 0.20955,-0.0487 1.2954,-0.2881 2.413,-0.53195 1.1176,-0.24385 2.18653,-0.47778 2.3754,-0.51985 0.20583,-0.0459 0.46783,0.061 0.65401,0.26673 0.30449,0.33646 0.30106,0.34524 -0.17406,0.44566 -1.55343,0.32832 -2.1259,0.49252 -3.19401,0.91611 -1.78209,0.70675 -2.07142,0.75305 -2.27923,0.36477 z"
         style="fill:#000000;stroke-width:0.16933332"
         sodipodi:nodetypes="ccsccccc" />
      <path
         inkscape:connector-curvature="0"
         id="path4530-8"
         d="m 65.234695,54.788281 c -0.30686,-0.33907 -0.23561,-0.68801 0.14047,-0.68801 0.36147,0 2.35154,-0.85853 2.79059,-1.20388 0.38904,-0.30602 0.43228,-0.30835 0.72958,-0.0393 0.30678,0.27763 0.30261,0.30002 -0.14248,0.76459 -0.25218,0.26322 -0.57761,0.47989 -0.72317,0.48147 -0.14556,0.002 -0.64565,0.22889 -1.11132,0.50512 -0.99672,0.59123 -1.28374,0.62192 -1.68367,0.18 z"
         style="fill:#000000;stroke-width:0.16933332"
         sodipodi:nodetypes="csccccccc" />
      <path
         inkscape:connector-curvature="0"
         id="path4530-87"
         d="m 64.815345,52.506031 c -0.38201,-0.40662 -0.38223,-0.40986 -0.0406,-0.59266 0.18889,-0.1011 0.56932,-0.18381 0.84538,-0.18381 0.27607,0 0.94465,-0.23288 1.48574,-0.51751 0.99743,-0.52468 1.75992,-0.56582 1.75992,-0.095 0,0.22033 -3.03325,1.7978 -3.4569,1.7978 -0.11517,0 -0.38224,-0.18399 -0.5935,-0.40886 z"
         style="fill:#000000;stroke-width:0.16933332"
         sodipodi:nodetypes="ccsssscc" />
      <path
         inkscape:connector-curvature="0"
         id="path4530-9"
         d="m 73.343715,50.364591 c -0.27031,-0.29868 -0.2802,-0.37155 -0.0686,-0.5054 0.13599,-0.086 0.3797,-0.15757 0.54157,-0.159 0.16187,-10e-4 1.02795,-0.2376 1.92463,-0.52483 1.18135,-0.37842 1.68139,-0.47117 1.81577,-0.33679 0.31412,0.31412 -0.36125,0.76555 -2.00597,1.34083 -0.83999,0.29381 -1.60923,0.5342 -1.70942,0.5342 -0.10019,0 -0.32429,-0.15705 -0.49801,-0.34901 z"
         style="fill:#000000;stroke-width:0.16933332"
         sodipodi:nodetypes="ccccscscc" />
      <path
         sodipodi:nodetypes="ccccccccccccccc"
         style="fill:#000000;stroke-width:0.16933332"
         d="m 76.827725,61.550931 c -0.0984,0 -0.15813,-0.67242 -0.14673,-1.651 0.011,-0.94007 -0.0685,-1.86975 -0.18459,-2.159 -0.29722,-0.74072 -0.44898,-0.67003 2.24108,-1.04389 1.451,-0.20165 1.88025,-0.21112 2.07935,-0.0459 0.20136,0.16712 0.24155,0.60991 0.20355,2.24281 l -0.0473,2.03458 c -1.411631,0.385304 -3.157297,0.393569 -4.14536,0.6224 z m 1.9478,-1.07719 c 1.5645,-0.41666 1.64757,-0.51943 1.56124,-1.93146 -0.0414,-0.67686 -0.10566,-1.26018 -0.14282,-1.29627 -0.0862,-0.0837 -2.64252,0.35954 -2.86442,0.49668 -0.19077,0.1179 -0.21549,1.0328 -0.0588,2.17594 0.1215,0.8864 0.17992,0.90796 1.50481,0.55511 z"
         id="path4524-4"
         inkscape:connector-curvature="0" />
      <path
         sodipodi:nodetypes="cccccccccscccccscccc"
         style="fill:#000000;stroke-width:0.16933332"
         d="m 64.502915,62.863261 c -0.094,-0.11641 -0.22279,-0.55456 -0.28619,-0.97366 -0.20025,-1.32388 -0.61743,-2.61169 -0.9687,-2.99034 -0.32338,-0.34859 -0.32468,-0.36898 -0.0278,-0.43634 0.1713,-0.0389 0.51197,0.0415 0.75705,0.17866 0.42248,0.23639 0.5213,0.20806 1.90491,-0.54615 l 1.45931,-0.79547 0.44047,0.47448 c 0.8134,0.87622 0.93258,1.2826 0.80938,2.75985 -0.0951,1.14039 -0.16049,1.35531 -0.41234,1.35531 -0.16463,0 -0.92242,0.2667 -1.68399,0.59266 -1.52271,0.65175 -1.73995,0.69329 -1.99213,0.381 z m 1.15803,-0.97435 c 0.33288,-0.0925 0.78431,-0.35875 1.00318,-0.59172 0.21887,-0.23298 0.49551,-0.42359 0.61475,-0.42359 0.26363,0 0.4457,-0.87517 0.37146,-1.78545 -0.0724,-0.88749 -0.42391,-0.92882 -1.98045,-0.23284 -1.31609,0.58848 -1.27174,0.50112 -1.09806,2.16278 0.11589,1.10879 0.14595,1.13282 1.08912,0.87082 z"
         id="path4524-6"
         inkscape:connector-curvature="0" />
      <path
         sodipodi:nodetypes="csccccscccccccccc"
         inkscape:connector-curvature="0"
         id="path4512-8"
         d="m 58.782267,76.153351 c -0.2453,-0.17193 -0.92317,-1.15904 -0.92317,-1.34431 0,-0.0834 1.12395,-0.2389 2.49767,-0.34559 3.29786,-0.187762 6.292289,-1.133872 9.568878,-1.48142 1.22863,-0.12135 1.64945,-0.37852 1.64945,-1.00802 0.302928,-2.738127 0.33773,-3.377955 -0.01949,-5.25841 -0.36649,-1.84001 -0.37158,-1.94733 -0.0923,-1.94733 0.14515,0 0.45828,0.25484 0.69586,0.56631 1.514179,2.274288 0.575179,5.939934 0.49195,7.32532 3.261495,-0.15831 6.90689,-0.323215 10.0743,-0.42798 5.95346,-0.19488 5.693459,-0.25179 6.48392,1.41906 0.266251,0.56281 0.484161,1.11854 0.48423,1.23495 1.7e-4,0.30508 -0.46804,0.26078 -1.258739,-0.11908 -0.87716,-0.42141 -2.206652,-0.62323 -5.636021,-0.85554 -7.627234,-0.388203 -16.742326,0.66782 -22.250434,2.104805 -1.19002,0.487541 -1.439824,0.365955 -1.766164,0.137225 z"
         style="fill:#000000;stroke-width:0.16933332" />
      <path
         sodipodi:nodetypes="ccccscccccccc"
         inkscape:connector-curvature="0"
         id="path4512-1"
         d="m 71.368064,70.666841 c -0.24013,0.19745 -0.42645,0.0695 -1.4792,-1.016 l -1.20446,-1.24191 c -0.678036,2.261871 -2.283548,3.52184 -3.92351,4.23037 -0.36364,0.15194 -0.62588,0.18961 -0.62588,0.0899 0,-0.0944 0.07863,-0.08893 0.24035,-0.17161 2.05429,-1.589822 3.668652,-4.112564 3.94602,-6.77854 0.04541,-0.599574 0.0768,-0.977 0.53071,-0.48981 0.52154,0.55981 0.886446,0.841861 0.514336,1.683081 l -0.483285,1.016889 c 0.382637,0.418128 0.952765,0.661721 1.387789,0.90835 0.44106,0.24979 0.91426,0.66113 1.05156,0.91409 0.180049,0.323029 0.267088,0.675131 0.04557,0.85519 z"
         style="fill:#000000;stroke-width:0.16933332" />
      <path
         style="fill:#000000;stroke-width:0.16933332"
         d="m 70.192015,57.056701 -0.45705,-0.39313 0.20715,-1.77455 c -0.05367,-3.574268 0.248394,-7.070736 -0.42675,-10.07281 -0.14669,-0.63252 -0.22882,-1.18794 -0.1825,-1.23425 0.22128,-0.22128 1.29675,0.7706 1.4764,1.36165 0.10615,0.34925 0.25623,0.635 0.33351,0.635 0.125968,2.946179 0.08304,6.060337 0.15358,8.65036 0.0619,2.1616 0.0302,2.69402 -0.17512,2.94302 -0.13964,0.113709 -0.694766,0.09074 -0.92922,-0.11529 z"
         id="path4607"
         inkscape:connector-curvature="0"
         sodipodi:nodetypes="cccccccccc" />
      <path
         sodipodi:nodetypes="cssccccscccccccsccccc"
         inkscape:connector-curvature="0"
         id="path4609"
         d="m 64.248605,49.846047 c -1.18898,0.47715 -2.2584,0.86755 -2.376488,0.86755 -0.18124,0 -0.79574,-0.81933 -0.79574,-1.06098 0,-0.0426 0.17401,-0.0441 0.38668,-0.004 0.22993,0.0439 1.448398,-0.367106 3.005668,-1.013996 1.44044,-0.59835 3.26668,-1.29935 4.05832,-1.55776 4.78164,-1.6035 0,0 4.78164,-1.6035 4.67747,-1.48635 9.53582,-2.718959 10.71685,-2.718959 0.27076,0 0.50975,0.19553 0.77615,0.634999 0.21171,0.34925 0.63088,0.94015 0.93149,1.31311 0.3006,0.37296 0.59327,0.86826 0.65037,1.10067 0.19062,0.7759 -1.60812,9.045976 -2.41219,11.090556 -0.71622,1.82118 -2.05856,3.34598 -2.43004,2.76033 -0.23998,-0.37835 -0.16204,-1.43467 0.12335,-1.67152 0.37885,-0.31442 1.38698,-2.36914 1.76818,-3.60384 0.50663,-1.64093 0.8422,-4.3172 0.8422,-6.716716 v -2.20664 l -0.46567,-0.18202 c -0.63029,-0.24637 -4.18777,-0.0902 -5.79966,0.25453 -0.6985,0.1494 -2.413,0.59614 -3.81,0.99276 -9.95111,3.325426 0,0 -9.95111,3.325426 z"
         style="fill:#000000;stroke-width:0.16933332" />
      <path
         sodipodi:nodetypes="ccccccc"
         style="fill:#000000;stroke-width:0.16933332"
         d="m 70.022359,100.53379 c 3.594034,2.17754 7.324967,5.31411 10.479856,7.52971 0.857043,0.56474 0.82594,0.70808 0.66634,0.86768 -0.698618,0.32746 -1.231788,0.47584 -2.11093,0.44679 l -3.54066,-3.37127 c -1.94736,-1.8542 -5.066914,-4.44216 -5.503194,-4.75064 z"
         id="path4498"
         inkscape:connector-curvature="0" />
      <path
         sodipodi:nodetypes="ccscc"
         inkscape:connector-curvature="0"
         id="path4500"
         d="m 67.087705,97.809103 c -0.882956,-0.58114 -2.979377,-0.8681 -3.22104,-1.8792 -0.11759,-0.5354 -0.003,-0.8298 0.32335,-0.8298 0.3588,0 3.10498,1.99879 3.491,2.5409 0.41578,0.58391 0.33883,0.60571 -0.59331,0.1681 z"
         style="fill:#000000;stroke-width:0.16933332" />
      <path
         sodipodi:nodetypes="ccccsccc"
         inkscape:connector-curvature="0"
         id="path4502"
         d="m 68.014555,81.605334 c 0.3645,-0.46338 0.50879,-0.51456 3.89915,-1.3829 2.77261,-0.71013 3.94641,-1.11779 4.5115,-1.56687 0.49439,-0.3929 0.65318,-0.43403 1.19962,-0.31079 0.57171,0.12894 1.06221,0.5281 1.06221,0.8644 0,0.22949 -0.357278,0.778019 -1.768641,0.861472 -3.24582,0.8644 -5.808782,1.28785 -9.160439,1.990788 -0.0562,0 0.0593,-0.20524 0.2566,-0.4561 z"
         style="fill:#000000;stroke-width:0.16933332" />
      <path
         sodipodi:nodetypes="csccscscc"
         style="fill:#000000;stroke-width:0.16933332"
         d="m 65.270455,85.783034 c -0.0397,-0.3497 0.0501,-0.41848 0.71658,-0.54873 3.50649,-0.68527 8.49162,-2.27517 9.78311,-3.12012 0.84114,-0.5503 0.92981,-0.57252 1.524,-0.38178 0.77016,0.24722 1.22356,0.62264 1.22356,1.01313 0,0.41863 -0.78354,0.87501 -1.59633,0.92981 -2.10993,0.14225 -4.97386,0.8449 -8.57632,2.10416 -1.34348,0.46962 -2.236557,0.871598 -2.54895,0.8539 -0.446549,-0.159816 -0.454997,-0.514434 -0.52565,-0.85037 z"
         id="path4504"
         inkscape:connector-curvature="0" />
      <path
         sodipodi:nodetypes="cssscsc"
         style="fill:#000000;stroke-width:0.16933332"
         d="m 62.889255,86.689874 c 2.09614,-2.25089 3.77511,-5.67678 3.77511,-7.70295 0,-0.71143 0.0634,-0.98949 0.22566,-0.98949 0.34899,0 1.29834,1.28409 1.29834,1.75612 0,0.80671 -1.216218,3.637764 -2.287028,4.881924 -0.98314,1.1423 -3.261012,2.844626 -3.590812,2.844626 -0.0864,0 0.17399,-0.3556 0.57873,-0.79023 z"
         id="path4506"
         inkscape:connector-curvature="0" />
      <path
         sodipodi:nodetypes="cccccccccccccsccccscc"
         inkscape:connector-curvature="0"
         id="path4508"
         d="m 86.525555,112.03128 c -6.354801,-3.38186 -10.758661,-15.059074 -8.0783,-24.424176 0.0602,-0.19121 0.004,-0.29634 -0.1586,-0.29634 -3.719736,1.518197 -10.416685,3.936091 -14.86076,5.588 -0.34922,0 -1.16635,-0.92894 -1.16581,-1.32532 2.6e-4,-0.19191 0.15054,-0.28886 0.46567,-0.30043 5.693368,-1.592095 10.382824,-3.640224 14.76232,-5.2189 0.4127,-0.15069 0.99817,-0.463 1.30104,-0.694 0.66518,-0.50737 0.65323,-0.50671 1.26678,-0.0698 0.40756,0.29022 0.49225,0.4715 0.4944,1.05834 0.001,0.38947 0.0706,0.651897 0.15377,0.94695 0.10145,0.16025 0.0229,0.43878 -0.23865,0.84666 -2.619888,6.141262 0.837797,17.416236 4.55597,21.158686 0.77638,0.75781 1.52393,1.37783 1.66122,1.37783 0.14447,0 0.46637,-0.48149 0.76416,-1.143 0.83694,-1.85922 1.08427,-2.64621 1.32689,-4.22213 l 0.22983,-1.49287 c -0.04863,2.68273 -0.140442,5.57992 -0.462112,7.91634 -0.203438,0.69567 -0.241638,0.80433 -0.600638,0.80433 -0.21796,0 -0.85569,-0.22957 -1.41719,-0.51015 z"
         style="fill:#000000;stroke-width:0.16933332" />
      <path
         sodipodi:nodetypes="ccccscccccc"
         style="fill:#000000;stroke-width:0.16933332"
         d="m 69.243525,109.4199 c -0.2963,-0.37669 -0.32138,-0.68667 -0.2911,-3.59834 l 0.08281,-10.316053 c 0,-1.44595 0.04222,-2.286588 -0.16872,-2.94427 -0.277322,-0.588113 -0.0586,-0.8478 0.23829,-0.8478 0.11146,0 0.540704,0.180409 0.838374,0.487529 0.750425,0.835247 0.446726,1.991777 0.446726,3.048311 l 9e-5,10.155783 c 0,2.14024 -0.0462,4.01187 -0.10278,4.15919 -0.15236,0.39703 -0.6745,0.32481 -1.04354,-0.14435 z"
         id="path4498-8"
         inkscape:connector-curvature="0" />
      <path
         sodipodi:nodetypes="csccsccc"
         style="fill:#000000;stroke-width:0.16933332"
         d="m 70.476119,97.662033 c 0.0869,-0.031 0.65321,-0.49491 1.25843,-1.03082 0.83881,-0.74274 1.128427,-1.250661 1.378977,-1.922291 0.18077,-0.48461 0.465903,-0.843323 0.572383,-0.878813 0.25815,-0.0861 1.20418,0.94028 1.20418,1.30638 0,0.3885 -0.71787,1.048214 -1.93737,1.780404 l -2.676462,1.78944 c 0,0 -0.32698,-0.45577 0.199862,-1.0443 z"
         id="path4498-6"
         inkscape:connector-curvature="0" />
      <path
         sodipodi:nodetypes="ccccccccc"
         style="fill:#000000;stroke-width:0.16933332"
         d="m 65.544405,100.02145 c -1.38636,0.46691 -2.64429,0.89046 -2.79541,0.94123 -0.29895,0.10042 -1.08733,-0.83525 -0.92504,-1.097847 0.0504,-0.0815 0.41716,-0.19945 0.81504,-0.26203 3.835868,-0.8996 7.556171,-1.72198 11.56076,-2.40557 2.28613,-0.4084 2.47807,-0.39801 2.7851,0.15078 0.2331,0.41666 0.23411,0.48834 0.009,0.63241 -0.1397,0.0894 -0.76028,0.16366 -1.37906,0.16508 -3.447665,-0.0146 -6.960844,0.847 -10.07039,1.875947 z"
         id="path4498-1"
         inkscape:connector-curvature="0" />
      <path
         sodipodi:nodetypes="ccccc"
         style="fill:#000000;stroke-width:0.16933332"
         d="m 69.251236,100.93211 c -2.031326,2.70469 -5.090355,6.20828 -7.793831,7.27696 -0.93868,0.33043 -0.92148,0.12084 0.0316,-0.38476 0.613939,-0.28226 6.7304,-6.50562 6.801804,-8.635867 1.93945,-1.2407 1.908779,0.60349 0.960427,1.743667 z"
         id="path4498-4"
         inkscape:connector-curvature="0" />
      <path
         inkscape:connector-curvature="0"
         id="path4644"
         d="m 66.506565,64.276461 c -0.19261,-0.2705 -0.3502,-0.51815 -0.3502,-0.55034 0,-0.0322 0.47625,-0.0631 1.05834,-0.0686 0.58208,-0.005 1.70603,-0.17287 2.49766,-0.37185 3.40188,-0.85507 5.23183,-1.25046 6.223,-1.34457 0.58209,-0.0553 1.05834,-0.16566 1.05834,-0.24533 0.846734,-0.56729 1.883822,-0.433514 2.31567,-0.07762 0.74739,0.64289 0.45319,0.9487 -0.91331,0.94935 -1.52274,6.61e-4 -3.4896,0.35476 -7.58298,1.36497 -1.86267,0.4597 -3.51483,0.83581 -3.67147,0.83581 -0.15665,1e-5 -0.4424,-0.2213 -0.635,-0.4918 z"
         style="fill:#000000;stroke-width:0.16933332"
         sodipodi:nodetypes="cscccccccccc" />
    </g>
  </g>
</svg>
